<svg xmlns="http://www.w3.org/2000/svg" width="48" height="48"><path d="M9 20h30v13H9zm0 0" fill="#37474f"/><path d="M39 33c0-3.313-6.715-6-15-6S9 29.688 9 33c0 3.313 6.715 6 15 6s15-2.688 15-6zm0 0" fill="#37474f"/><path d="M23.102 8.2l-22.5 9.902C-.2 18.5-.2 19.602.602 20l22.5 9.898c.597.204 1.199.204 1.796 0L47.398 20c.801-.398.801-1.5 0-1.898l-22.5-9.903c-.597-.3-1.199-.3-1.796 0zm0 0" fill="#78909c"/><path d="M43.2 20.398L23.2 17c-.5-.102-1.098.3-1.2.8-.102.5.3 1.098.8 1.2L42 22.2V37c0 .602.398 1 1 1s1-.398 1-1V21.398c0-.5-.398-.898-.8-1zm0 0" fill="#37474f"/><path d="M45 37a1.999 1.999 0 1 1-4 0 1.999 1.999 0 1 1 4 0zm0 0" fill="#37474f"/><path d="M46 40c0 1.7-3 6-3 6s-3-4.3-3-6c0-1.7 1.3-3 3-3s3 1.3 3 3zm0 0" fill="#37474f"/></svg>